<?xml version="1.0" encoding="utf-8"?>
<!-- Generator: Adobe Illustrator 23.0.6, SVG Export Plug-In . SVG Version: 6.00 Build 0)  -->
<svg version="1.1" id="Layer_1" xmlns="http://www.w3.org/2000/svg" xmlns:xlink="http://www.w3.org/1999/xlink" x="0px" y="0px"
	 viewBox="0 0 1000 1000" style="enable-background:new 0 0 1000 1000;" xml:space="preserve">
<style type="text/css">
	.st0{fill:#00AEEF;}
</style>
<path class="st0" d="M500,0C328.8,0,190,137.6,190,307.4c0,244.7,132.3,196.5,310,692.6c177.7-496.1,310-447.9,310-692.6
	C810,137.6,671.2,0,500,0z M662.3,410.3c9.8,9.8,9.8,25.6,0,35.4l-36.6,36.6c-9.8,9.8-25.6,9.8-35.4,0L500,392l-90.3,90.3
	c-9.8,9.8-25.6,9.8-35.4,0l-36.6-36.6c-9.8-9.8-9.8-25.6,0-35.4L428,320l-90.3-90.3c-9.8-9.8-9.8-25.6,0-35.4l36.6-36.6
	c9.8-9.8,25.6-9.8,35.4,0L500,248l90.3-90.3c9.8-9.8,25.6-9.8,35.4,0l36.6,36.6c9.8,9.8,9.8,25.6,0,35.4L572,320L662.3,410.3z"/>
</svg>
